<?xml version="1.0" encoding="UTF-8"?>
<svg width="24" height="24" viewBox="0 0 24 24" fill="none" xmlns="http://www.w3.org/2000/svg">
  <path d="M4.5 16.5C4.5 16.5 6 15.75 6 13.5C6 11.25 8.25 9 8.25 9C8.25 9 12 12 12 16.5M19.5 16.5C19.5 16.5 18 15.75 18 13.5C18 11.25 15.75 9 15.75 9C15.75 9 12 12 12 16.5M12 16.5V21M12 3C16.9706 3 21 7.02944 21 12C21 16.9706 16.9706 21 12 21C7.02944 21 3 16.9706 3 12C3 7.02944 7.02944 3 12 3Z" stroke="#60A5FA" stroke-width="2" stroke-linecap="round" stroke-linejoin="round"/>
</svg>
